<svg xmlns="http://www.w3.org/2000/svg" xmlns:svg="http://www.w3.org/2000/svg" xmlns:xlink="http://www.w3.org/1999/xlink" id="svg4292" width="80.949" height="78.271" version="1.0"><metadata id="metadata54"/><defs id="defs4294"><linearGradient id="linearGradient5447"><stop id="stop5449" offset="0" stop-color="#fff" stop-opacity="1"/><stop id="stop5451" offset="1" stop-color="#fff" stop-opacity="0"/></linearGradient><linearGradient id="linearGradient5421"><stop id="stop5423" offset="0" stop-color="#add986" stop-opacity="1"/><stop id="stop5425" offset="1" stop-color="#add986" stop-opacity="0"/></linearGradient><linearGradient id="linearGradient5413"><stop id="stop5415" offset="0" stop-color="#a8cfe5" stop-opacity="1"/><stop id="stop5417" offset="1" stop-color="#a8cfe5" stop-opacity="0"/></linearGradient><linearGradient id="linearGradient5401"><stop id="stop5403" offset="0" stop-color="#fff" stop-opacity="1"/><stop id="stop5405" offset="1" stop-color="#fff" stop-opacity="0"/></linearGradient><linearGradient id="linearGradient5391"><stop id="stop5393" offset="0" stop-color="#e4e8e1" stop-opacity="1"/><stop id="stop5395" offset="1" stop-color="#f8faf5" stop-opacity="1"/></linearGradient><radialGradient id="radialGradient5031" cx="605.714" cy="486.648" r="117.143" fx="605.714" fy="486.648" gradientTransform="matrix(-2.774389,0,0,1.969706,112.7623,-872.8854)" gradientUnits="userSpaceOnUse" xlink:href="#linearGradient5060"/><linearGradient id="linearGradient5060"><stop id="stop5062" offset="0" stop-color="#000" stop-opacity="1"/><stop id="stop5064" offset="1" stop-color="#000" stop-opacity="0"/></linearGradient><radialGradient id="radialGradient5029" cx="605.714" cy="486.648" r="117.143" fx="605.714" fy="486.648" gradientTransform="matrix(2.774389,0,0,1.969706,-1891.633,-872.8854)" gradientUnits="userSpaceOnUse" xlink:href="#linearGradient5060"/><linearGradient id="linearGradient5048"><stop id="stop5050" offset="0" stop-color="#000" stop-opacity="0"/><stop id="stop5056" offset=".5" stop-color="#000" stop-opacity="1"/><stop id="stop5052" offset="1" stop-color="#000" stop-opacity="0"/></linearGradient><linearGradient id="linearGradient5027" x1="302.857" x2="302.857" y1="366.648" y2="609.505" gradientTransform="matrix(2.774389,0,0,1.969706,-1892.179,-872.8854)" gradientUnits="userSpaceOnUse" xlink:href="#linearGradient5048"/><linearGradient id="linearGradient5397" x1="27" x2="27.25" y1="40" y2="12.375" gradientTransform="translate(0,-2)" gradientUnits="userSpaceOnUse" xlink:href="#linearGradient5391"/><linearGradient id="linearGradient5407" x1="4" x2="8.125" y1="25" y2="62.875" gradientTransform="translate(0,-2)" gradientUnits="userSpaceOnUse" xlink:href="#linearGradient5401"/><linearGradient id="linearGradient5419" x1="37.33" x2="41.689" y1="24.135" y2="24.135" gradientTransform="translate(0,-2)" gradientUnits="userSpaceOnUse" xlink:href="#linearGradient5413"/><linearGradient id="linearGradient5427" x1="37.33" x2="40.628" y1="33.946" y2="33.946" gradientTransform="translate(0,-2)" gradientUnits="userSpaceOnUse" xlink:href="#linearGradient5421"/><radialGradient id="radialGradient5453" cx="21.92" cy="24.842" r="14.319" fx="21.92" fy="24.842" gradientUnits="userSpaceOnUse" xlink:href="#linearGradient5447"/><linearGradient id="linearGradient3040" x1="37.33" x2="40.628" y1="33.946" y2="33.946" gradientTransform="matrix(1.879413,0,0,1.9071274,-4.6313343,-8.542592)" gradientUnits="userSpaceOnUse" xlink:href="#linearGradient5421"/><linearGradient id="linearGradient3043" x1="37.33" x2="41.689" y1="24.135" y2="24.135" gradientTransform="matrix(1.879413,0,0,1.9071274,-4.6313343,-8.542592)" gradientUnits="userSpaceOnUse" xlink:href="#linearGradient5413"/><linearGradient id="linearGradient3046" x1="4" x2="8.125" y1="25" y2="62.875" gradientTransform="matrix(1.879413,0,0,1.9071274,-4.6313343,-8.542592)" gradientUnits="userSpaceOnUse" xlink:href="#linearGradient5401"/><radialGradient id="radialGradient3049" cx="21.92" cy="24.842" r="14.319" fx="21.92" fy="24.842" gradientTransform="matrix(2.3202631,0,0,2.3544784,-11.637009,-17.632982)" gradientUnits="userSpaceOnUse" xlink:href="#linearGradient5447"/><linearGradient id="linearGradient3052" x1="27" x2="27.25" y1="40" y2="12.375" gradientTransform="matrix(1.879413,0,0,1.9071274,-4.6313343,-8.542592)" gradientUnits="userSpaceOnUse" xlink:href="#linearGradient5391"/></defs><rect id="rect4297" width="77.056" height="74.378" x="1.947" y="1.947" fill="url(#linearGradient3052)" fill-opacity="1" fill-rule="nonzero" stroke="#9b9c98" stroke-dasharray="none" stroke-dashoffset="0" stroke-linecap="round" stroke-linejoin="round" stroke-miterlimit="4" stroke-opacity="1" stroke-width="1.893" color="#000" display="inline" overflow="visible" rx="3.656" ry="3.467" visibility="visible" style="marker:none"/><path d="m 72.447526,40.857567 a 33.223647,33.713573 0 0 1 -66.4472934,0 33.223647,33.713573 0 1 1 66.4472934,0 z" style="marker:none" id="path5445" fill="url(#radialGradient3049)" fill-opacity="1" fill-rule="nonzero" stroke="none" stroke-width="1" color="#000" display="inline" opacity=".577" overflow="visible" visibility="visible"/><rect id="rect5399" width="73.297" height="70.564" x="3.826" y="3.854" fill="none" stroke="url(#linearGradient3046)" stroke-dasharray="none" stroke-dashoffset="0" stroke-linecap="round" stroke-linejoin="round" stroke-miterlimit="4" stroke-opacity="1" stroke-width="1.893" color="#000" display="inline" opacity=".6" overflow="visible" rx="1.832" ry="1.859" visibility="visible" style="marker:none"/><path id="path5409" fill="none" stroke="url(#linearGradient3043)" stroke-linecap="butt" stroke-linejoin="miter" stroke-opacity="1" stroke-width="1.893" d="M 7.9936489,66.479873 21.617178,44.108187 32.956926,54.39261 47.919023,31.199823 63.205356,39.54992 72.779751,8.4925362"/><path id="path5411" fill="none" stroke="url(#linearGradient3040)" stroke-linecap="butt" stroke-linejoin="miter" stroke-opacity="1" stroke-width="1.893" d="m 7.9936489,66.479873 13.5999171,-8.627417 11.128433,6.357991 14.938486,-17.720324 15.152174,5.830052 9.967092,-6.405579"/><path d="m 25.321814,44.856973 a 3.7000964,3.8142543 0 0 1 -7.400192,0 3.7000964,3.8142543 0 1 1 7.400192,0 z" style="marker:none" id="path5429" fill="#a8cfe5" fill-opacity="1" fill-rule="nonzero" stroke="none" stroke-width="1" color="#000" display="inline" overflow="visible" visibility="visible"/><path d="m 36.598292,54.39261 a 3.7000962,3.8142542 0 0 1 -7.400192,0 3.7000962,3.8142542 0 1 1 7.400192,0 z" style="marker:none" id="path5431" fill="#a8cfe5" fill-opacity="1" fill-rule="nonzero" stroke="none" stroke-width="1" color="#000" display="inline" overflow="visible" visibility="visible"/><path d="m 51.75106,31.507072 a 3.7000965,3.8142545 0 0 1 -7.400193,0 3.7000965,3.8142545 0 1 1 7.400193,0 z" style="marker:none" id="path5433" fill="#a8cfe5" fill-opacity="1" fill-rule="nonzero" stroke="none" stroke-width="1" color="#000" display="inline" overflow="visible" visibility="visible"/><path d="m 66.6689,39.135601 a 3.7000962,3.8142542 0 0 1 -7.400192,0 3.7000962,3.8142542 0 1 1 7.400192,0 z" style="marker:none" id="path5435" fill="#a8cfe5" fill-opacity="1" fill-rule="nonzero" stroke="none" stroke-width="1" color="#000" display="inline" overflow="visible" visibility="visible"/><path d="m 25.321814,58.206865 a 3.7000964,3.8142543 0 0 1 -7.400192,0 3.7000964,3.8142543 0 1 1 7.400192,0 z" style="marker:none" id="path5437" fill="#add986" fill-opacity="1" fill-rule="nonzero" stroke="none" stroke-width="1" color="#000" display="inline" overflow="visible" visibility="visible"/><path d="m 36.598292,63.928247 a 3.7000962,3.8142542 0 0 1 -7.400192,0 3.7000962,3.8142542 0 1 1 7.400192,0 z" style="marker:none" id="path5439" fill="#add986" fill-opacity="1" fill-rule="nonzero" stroke="none" stroke-width="1" color="#000" display="inline" overflow="visible" visibility="visible"/><path d="m 51.633596,46.764101 a 3.7000962,3.8142542 0 0 1 -7.400192,0 3.7000962,3.8142542 0 1 1 7.400192,0 z" style="marker:none" id="path5441" fill="#add986" fill-opacity="1" fill-rule="nonzero" stroke="none" stroke-width="1" color="#000" display="inline" overflow="visible" visibility="visible"/><path d="m 66.6689,52.485483 a 3.7000962,3.8142542 0 0 1 -7.400192,0 3.7000962,3.8142542 0 1 1 7.400192,0 z" style="marker:none" id="path5443" fill="#add986" fill-opacity="1" fill-rule="nonzero" stroke="none" stroke-width="1" color="#000" display="inline" overflow="visible" visibility="visible"/></svg>